HIERARCHY
ROOT mixamorig:Hips
{
	OFFSET 0.000000 201.639420 0.000000
	CHANNELS 6 Xposition Yposition Zposition Xrotation Yrotation Zrotation
	JOINT mixamorig:Spine
	{
		OFFSET 0.006200 19.524994 -2.481800
		CHANNELS 3 Xrotation Yrotation Zrotation
		JOINT mixamorig:Spine1
		{
			OFFSET -0.000900 22.835007 -2.825400
			CHANNELS 3 Xrotation Yrotation Zrotation
			JOINT mixamorig:Spine2
			{
				OFFSET -0.020600 26.552490 -3.193300
				CHANNELS 3 Xrotation Yrotation Zrotation
				JOINT mixamorig:Neck
				{
					OFFSET -0.060000 30.701813 1.352200
					CHANNELS 3 Xrotation Yrotation Zrotation
					JOINT mixamorig:Head
					{
						OFFSET -0.087200 22.547607 3.670900
						CHANNELS 3 Xrotation Yrotation Zrotation
						JOINT mixamorig:HeadTop_End
						{
							OFFSET -0.830600 40.355194 7.893500
							CHANNELS 3 Xrotation Yrotation Zrotation
							End Site
							{
								OFFSET 0.000000 30.592346 0.000000
							}
						}
						JOINT mixamorig:RightEye
						{
							OFFSET -6.302100 18.118591 16.197100
							CHANNELS 3 Xrotation Yrotation Zrotation
							End Site
							{
								OFFSET 0.000000 30.592346 0.000000
							}
						}
						JOINT mixamorig:LeftEye
						{
							OFFSET 6.741500 18.382690 16.401899
							CHANNELS 3 Xrotation Yrotation Zrotation
							End Site
							{
								OFFSET 0.000000 30.592346 0.000000
							}
						}
					}
				}
				JOINT mixamorig:LeftShoulder
				{
					OFFSET 11.924900 18.230499 1.425400
					CHANNELS 3 Xrotation Yrotation Zrotation
					JOINT mixamorig:LeftArm
					{
						OFFSET 25.435989 -0.697632 -5.229300
						CHANNELS 3 Xrotation Yrotation Zrotation
						JOINT mixamorig:LeftForeArm
						{
							OFFSET 54.684776 0.000000 0.000000
							CHANNELS 3 Xrotation Yrotation Zrotation
							JOINT mixamorig:LeftHand
							{
								OFFSET 55.098175 0.000000 0.000000
								CHANNELS 3 Xrotation Yrotation Zrotation
								JOINT mixamorig:LeftHandMiddle1
								{
									OFFSET 23.369751 0.000000 0.000000
									CHANNELS 3 Xrotation Yrotation Zrotation
									JOINT mixamorig:LeftHandMiddle2
									{
										OFFSET 6.378677 0.000000 0.000000
										CHANNELS 3 Xrotation Yrotation Zrotation
										JOINT mixamorig:LeftHandMiddle3
										{
											OFFSET 6.148331 0.000000 0.000000
											CHANNELS 3 Xrotation Yrotation Zrotation
											JOINT mixamorig:LeftHandMiddle4
											{
												OFFSET 6.582504 0.000000 0.000000
												CHANNELS 3 Xrotation Yrotation Zrotation
												End Site
												{
													OFFSET -1.168900 6.395691 1.028606
												}
											}
										}
									}
								}
								JOINT mixamorig:LeftHandThumb1
								{
									OFFSET 7.235672 -3.848206 5.434273
									CHANNELS 3 Xrotation Yrotation Zrotation
									JOINT mixamorig:LeftHandThumb2
									{
										OFFSET 6.568451 -3.792297 3.792300
										CHANNELS 3 Xrotation Yrotation Zrotation
										JOINT mixamorig:LeftHandThumb3
										{
											OFFSET 6.063080 -3.500519 3.500518
											CHANNELS 3 Xrotation Yrotation Zrotation
											JOINT mixamorig:LeftHandThumb4
											{
												OFFSET 4.793182 -2.767334 2.767349
												CHANNELS 3 Xrotation Yrotation Zrotation
												End Site
												{
													OFFSET 0.101639 6.054260 1.275483
												}
											}
										}
									}
								}
								JOINT mixamorig:LeftHandIndex1
								{
									OFFSET 23.101074 -0.309540 4.992809
									CHANNELS 3 Xrotation Yrotation Zrotation
									JOINT mixamorig:LeftHandIndex2
									{
										OFFSET 6.226883 0.000000 0.000000
										CHANNELS 3 Xrotation Yrotation Zrotation
										JOINT mixamorig:LeftHandIndex3
										{
											OFFSET 6.094330 0.000000 0.000000
											CHANNELS 3 Xrotation Yrotation Zrotation
											JOINT mixamorig:LeftHandIndex4
											{
												OFFSET 5.482605 0.000000 0.000000
												CHANNELS 3 Xrotation Yrotation Zrotation
												End Site
												{
													OFFSET -1.427902 5.233032 0.797164
												}
											}
										}
									}
								}
								JOINT mixamorig:LeftHandRing1
								{
									OFFSET 22.299240 0.021149 -3.964172
									CHANNELS 3 Xrotation Yrotation Zrotation
									JOINT mixamorig:LeftHandRing2
									{
										OFFSET 6.321869 0.000000 0.000000
										CHANNELS 3 Xrotation Yrotation Zrotation
										JOINT mixamorig:LeftHandRing3
										{
											OFFSET 5.899796 0.000000 0.000000
											CHANNELS 3 Xrotation Yrotation Zrotation
											JOINT mixamorig:LeftHandRing4
											{
												OFFSET 6.517899 0.000000 0.000000
												CHANNELS 3 Xrotation Yrotation Zrotation
												End Site
												{
													OFFSET -1.637299 6.232208 0.980890
												}
											}
										}
									}
								}
								JOINT mixamorig:LeftHandPinky1
								{
									OFFSET 20.463791 -0.302338 -8.562233
									CHANNELS 3 Xrotation Yrotation Zrotation
									JOINT mixamorig:LeftHandPinky2
									{
										OFFSET 6.908646 0.000000 0.000000
										CHANNELS 3 Xrotation Yrotation Zrotation
										JOINT mixamorig:LeftHandPinky3
										{
											OFFSET 4.622849 0.000000 0.000000
											CHANNELS 3 Xrotation Yrotation Zrotation
											JOINT mixamorig:LeftHandPinky4
											{
												OFFSET 5.216080 0.000000 0.000000
												CHANNELS 3 Xrotation Yrotation Zrotation
												End Site
												{
													OFFSET -0.606308 5.116241 0.814926
												}
											}
										}
									}
								}
							}
						}
					}
				}
				JOINT mixamorig:RightShoulder
				{
					OFFSET -12.001300 18.284088 1.348900
					CHANNELS 3 Xrotation Yrotation Zrotation
					JOINT mixamorig:RightArm
					{
						OFFSET -25.308500 -0.751312 -5.164599
						CHANNELS 3 Xrotation Yrotation Zrotation
						JOINT mixamorig:RightForeArm
						{
							OFFSET -54.684429 0.000000 0.000000
							CHANNELS 3 Xrotation Yrotation Zrotation
							JOINT mixamorig:RightHand
							{
								OFFSET -55.150291 0.000000 0.000000
								CHANNELS 3 Xrotation Yrotation Zrotation
								JOINT mixamorig:RightHandMiddle1
								{
									OFFSET -23.317566 0.000000 0.000000
									CHANNELS 3 Xrotation Yrotation Zrotation
									JOINT mixamorig:RightHandMiddle2
									{
										OFFSET -6.378403 0.000000 0.000000
										CHANNELS 3 Xrotation Yrotation Zrotation
										JOINT mixamorig:RightHandMiddle3
										{
											OFFSET -6.148193 0.000000 0.000000
											CHANNELS 3 Xrotation Yrotation Zrotation
											JOINT mixamorig:RightHandMiddle4
											{
												OFFSET -6.583389 0.000000 0.000000
												CHANNELS 3 Xrotation Yrotation Zrotation
												End Site
												{
													OFFSET 1.171692 6.395905 1.029786
												}
											}
										}
									}
								}
								JOINT mixamorig:RightHandThumb1
								{
									OFFSET -7.190521 -3.860474 5.435846
									CHANNELS 3 Xrotation Yrotation Zrotation
									JOINT mixamorig:RightHandThumb2
									{
										OFFSET -6.567429 -3.791718 3.791708
										CHANNELS 3 Xrotation Yrotation Zrotation
										JOINT mixamorig:RightHandThumb3
										{
											OFFSET -6.062469 -3.500153 3.500166
											CHANNELS 3 Xrotation Yrotation Zrotation
											JOINT mixamorig:RightHandThumb4
											{
												OFFSET -4.792618 -2.767029 2.767022
												CHANNELS 3 Xrotation Yrotation Zrotation
												End Site
												{
													OFFSET -0.100327 6.053253 1.276754
												}
											}
										}
									}
								}
								JOINT mixamorig:RightHandIndex1
								{
									OFFSET -23.048981 -0.310791 4.992554
									CHANNELS 3 Xrotation Yrotation Zrotation
									JOINT mixamorig:RightHandIndex2
									{
										OFFSET -6.227539 0.000000 0.000000
										CHANNELS 3 Xrotation Yrotation Zrotation
										JOINT mixamorig:RightHandIndex3
										{
											OFFSET -6.095047 0.000000 0.000000
											CHANNELS 3 Xrotation Yrotation Zrotation
											JOINT mixamorig:RightHandIndex4
											{
												OFFSET -5.484772 0.000000 0.000000
												CHANNELS 3 Xrotation Yrotation Zrotation
												End Site
												{
													OFFSET 1.420593 5.237305 0.797056
												}
											}
										}
									}
								}
								JOINT mixamorig:RightHandRing1
								{
									OFFSET -22.246323 0.020569 -3.963762
									CHANNELS 3 Xrotation Yrotation Zrotation
									JOINT mixamorig:RightHandRing2
									{
										OFFSET -6.322128 0.000000 0.000000
										CHANNELS 3 Xrotation Yrotation Zrotation
										JOINT mixamorig:RightHandRing3
										{
											OFFSET -5.900024 0.000000 0.000000
											CHANNELS 3 Xrotation Yrotation Zrotation
											JOINT mixamorig:RightHandRing4
											{
												OFFSET -6.518356 0.000000 0.000000
												CHANNELS 3 Xrotation Yrotation Zrotation
												End Site
												{
													OFFSET 1.636398 6.232697 0.982186
												}
											}
										}
									}
								}
								JOINT mixamorig:RightHandPinky1
								{
									OFFSET -20.411011 -0.303314 -8.561701
									CHANNELS 3 Xrotation Yrotation Zrotation
									JOINT mixamorig:RightHandPinky2
									{
										OFFSET -6.907349 0.000000 0.000000
										CHANNELS 3 Xrotation Yrotation Zrotation
										JOINT mixamorig:RightHandPinky3
										{
											OFFSET -4.623840 0.000000 0.000000
											CHANNELS 3 Xrotation Yrotation Zrotation
											JOINT mixamorig:RightHandPinky4
											{
												OFFSET -5.218353 0.000000 0.000000
												CHANNELS 3 Xrotation Yrotation Zrotation
												End Site
												{
													OFFSET 0.602097 5.118835 0.816273
												}
											}
										}
									}
								}
							}
						}
					}
				}
			}
		}
	}
	JOINT mixamorig:LeftUpLeg
	{
		OFFSET 18.168400 -13.561905 -0.039000
		CHANNELS 3 Xrotation Yrotation Zrotation
		JOINT mixamorig:LeftLeg
		{
			OFFSET 0.577358 -80.825211 -3.695000
			CHANNELS 3 Xrotation Yrotation Zrotation
			JOINT mixamorig:LeftFoot
			{
				OFFSET -0.577356 -83.370262 -6.520700
				CHANNELS 3 Xrotation Yrotation Zrotation
				JOINT mixamorig:LeftToeBase
				{
					OFFSET 0.750401 -20.798306 25.135401
					CHANNELS 3 Xrotation Yrotation Zrotation
					JOINT mixamorig:LeftToe_End
					{
						OFFSET -0.000500 0.001200 19.917799
						CHANNELS 3 Xrotation Yrotation Zrotation
						End Site
						{
							OFFSET 0.000000 19.917805 0.000000
						}
					}
				}
			}
		}
	}
	JOINT mixamorig:RightUpLeg
	{
		OFFSET -18.162500 -13.585098 -0.041000
		CHANNELS 3 Xrotation Yrotation Zrotation
		JOINT mixamorig:RightLeg
		{
			OFFSET -0.595024 -80.945297 -3.631900
			CHANNELS 3 Xrotation Yrotation Zrotation
			JOINT mixamorig:RightFoot
			{
				OFFSET 0.595024 -83.218193 -6.561200
				CHANNELS 3 Xrotation Yrotation Zrotation
				JOINT mixamorig:RightToeBase
				{
					OFFSET -0.753601 -20.807106 25.115000
					CHANNELS 3 Xrotation Yrotation Zrotation
					JOINT mixamorig:RightToe_End
					{
						OFFSET 0.000299 0.001700 19.918200
						CHANNELS 3 Xrotation Yrotation Zrotation
						End Site
						{
							OFFSET 0.000000 19.918203 0.000000
						}
					}
				}
			}
		}
	}
}
MOTION
Frames: 5
Frame Time: 0.033333
-8.336929 199.925934 -12.933775 -1.796568 -8.053287 -3.506459 1.187105 0.747649 0.881566 2.364112 1.529021 1.678784 2.364112 1.529022 1.678783 -9.975338 1.003919 1.411888 4.659727 1.343606 -2.847948 -0.000000 -0.000000 0.000000 -0.000000 -0.000000 0.000000 -0.000000 -0.000000 0.000000 -2.334625 0.351538 -11.371854 19.119492 -24.739092 -62.296427 0.738803 -27.121841 0.336761 -34.702702 -4.191618 10.836311 -0.789106 6.938943 -10.664756 -0.016895 -0.326676 -11.027961 0.000003 -0.000002 0.000008 -0.000000 0.000000 0.000000 15.402522 9.117758 8.352353 4.332898 10.067940 5.746310 -0.000001 0.000009 0.000006 0.000003 0.000001 0.000000 -6.514436 12.181542 -13.003870 0.562334 1.139675 -11.806396 -0.000001 0.000004 -0.000006 -0.000000 0.000000 -0.000000 1.926897 6.537169 -19.457672 -0.108422 0.030738 -11.281020 0.000001 -0.000001 -0.000009 -0.000001 0.000002 0.000000 6.763673 7.058072 -28.777889 -0.491001 -2.794595 -16.371166 -0.000002 0.000000 -0.000008 0.000000 0.000000 0.000000 -1.653177 -0.012442 7.456167 16.700168 18.666028 65.090562 1.187176 34.728749 -0.676275 11.849209 4.418787 1.265185 -0.090899 -6.140985 13.862802 -0.108318 0.537930 11.651517 0.000007 0.000006 0.000012 0.000004 -0.000000 -0.000001 -7.901091 -16.077372 -4.143483 6.152009 -13.943286 -3.528697 0.000007 0.000001 -0.000008 0.000003 0.000000 0.000000 -6.579399 -7.853856 13.524079 0.043094 -0.596943 5.791748 0.000004 -0.000003 -0.000000 0.000002 -0.000003 -0.000000 -0.640359 -3.900361 20.489225 -0.396243 0.526555 10.374408 0.000003 0.000007 -0.000001 0.000000 0.000001 0.000001 1.294756 -3.299080 22.866054 -1.378513 4.183780 13.302511 -0.000010 -0.000001 0.000002 -0.000005 0.000002 0.000002 -17.344961 1.464513 8.878871 15.249599 0.072671 -0.523138 5.604450 17.819035 -3.851911 0.578340 3.290109 -1.778120 0.000000 0.000000 -0.000000 -3.396257 -11.896088 5.783852 8.114876 0.043062 0.255561 -3.348410 -7.817453 -3.991193 1.266619 0.927749 -0.013423 0.000000 0.000002 -0.000000 
-8.318286 199.876373 -12.902291 -1.774735 -8.038041 -3.546196 1.187791 0.743917 0.898803 2.365323 1.522425 1.711964 2.365322 1.522425 1.711964 -10.059647 1.004659 1.389108 4.691646 1.382632 -2.897023 -0.000000 0.000000 0.000000 -0.000000 0.000000 0.000000 -0.000000 0.000000 0.000000 -2.342941 0.355887 -11.420610 19.161367 -24.666117 -62.310238 0.743941 -27.200776 0.339999 -34.775748 -4.204029 10.909722 -0.795874 6.900271 -10.707918 -0.016166 -0.317205 -10.832053 0.000002 -0.000001 0.000009 -0.000001 -0.000001 0.000000 15.433878 9.146180 8.328371 4.369563 10.144707 5.721237 -0.000004 0.000010 0.000011 0.000001 0.000000 -0.000001 -6.524616 12.153607 -12.962107 0.559460 1.130686 -11.678678 -0.000001 0.000001 -0.000006 -0.000000 0.000001 0.000001 1.898552 6.446446 -19.656221 -0.110614 0.022447 -11.366215 -0.000001 -0.000003 -0.000010 -0.000000 -0.000001 0.000002 6.808918 7.095309 -28.917880 -0.497192 -2.809207 -16.455556 -0.000001 0.000000 -0.000009 -0.000001 0.000001 0.000002 -1.656737 -0.023940 7.458760 16.778297 18.611721 65.030183 1.191167 34.836820 -0.680403 11.834798 4.360361 1.308454 -0.100136 -6.101699 13.812407 -0.106310 0.528117 11.498803 0.000006 0.000007 0.000013 0.000003 0.000001 -0.000001 -7.887010 -16.098346 -4.117204 6.164805 -13.966657 -3.525216 0.000002 -0.000000 -0.000011 0.000000 -0.000001 0.000000 -6.571160 -7.889935 13.545610 0.042728 -0.594863 5.750516 0.000000 -0.000001 -0.000001 0.000004 -0.000000 -0.000001 -0.658592 -3.856683 20.518146 -0.395482 0.524978 10.346558 0.000003 0.000005 -0.000002 -0.000005 0.000003 -0.000001 1.298195 -3.307969 22.872978 -1.377544 4.182492 13.287151 -0.000003 -0.000002 0.000005 0.000000 -0.000000 -0.000001 -17.520438 1.416729 8.922635 15.565183 0.069938 -0.534306 5.426379 17.804700 -3.837834 0.602240 3.289444 -1.797452 -0.000000 0.000000 -0.000000 -3.527731 -12.061841 5.771935 8.392892 0.043271 0.266107 -3.492402 -7.683516 -3.983295 1.262806 0.927736 -0.013378 0.000000 -0.000000 0.000000 
-8.281315 199.782166 -12.851948 -1.728075 -7.993235 -3.634291 1.182269 0.732865 0.931582 2.354028 1.501848 1.775452 2.354027 1.501844 1.775452 -10.221537 0.999723 1.356799 4.708334 1.416780 -2.953640 0.000000 0.000000 0.000000 0.000000 0.000000 0.000000 0.000000 0.000000 0.000000 -2.355977 0.363476 -11.487809 19.251926 -24.538121 -62.339014 0.754940 -27.370952 0.347002 -34.821114 -4.171743 11.040717 -0.810807 6.818406 -10.733560 -0.015355 -0.305083 -10.580717 -0.000001 -0.000001 0.000009 -0.000001 -0.000001 0.000001 15.473923 9.174700 8.266476 4.394233 10.196281 5.704413 -0.000002 0.000011 0.000008 0.000002 0.000000 -0.000001 -6.515659 12.166607 -13.047699 0.558241 1.126855 -11.624224 -0.000002 0.000002 -0.000005 -0.000000 0.000001 -0.000002 1.879887 6.392329 -19.681540 -0.110761 0.021860 -11.372088 0.000001 -0.000001 -0.000007 -0.000000 -0.000000 0.000001 6.921123 7.272613 -28.949142 -0.514232 -2.851275 -16.697325 -0.000001 -0.000000 -0.000007 0.000001 0.000001 0.000006 -1.664401 -0.041641 7.465533 16.927420 18.529506 64.913660 1.198577 35.042603 -0.688169 11.814454 4.262781 1.359177 -0.103008 -6.089157 13.783558 -0.104659 0.519892 11.370796 0.000009 0.000006 0.000013 -0.000001 0.000001 -0.000000 -7.863960 -16.134756 -4.059122 6.178584 -13.991876 -3.521462 0.000004 0.000001 -0.000010 -0.000002 -0.000001 -0.000001 -6.565054 -7.916180 13.557015 0.042124 -0.591414 5.681929 0.000000 -0.000000 -0.000003 -0.000003 -0.000001 -0.000001 -0.659237 -3.854697 20.514794 -0.391541 0.516702 10.201232 0.000005 0.000005 -0.000003 0.000002 0.000001 0.000001 1.312995 -3.326650 22.802361 -1.368639 4.170840 13.147059 -0.000009 -0.000002 0.000002 0.000001 -0.000001 0.000001 -17.856995 1.294298 9.012219 16.155539 0.064825 -0.555400 5.102860 17.764743 -3.815339 0.628261 3.289135 -1.845414 -0.000000 0.000001 -0.000000 -3.760710 -12.309994 5.777098 8.866308 0.043718 0.284015 -3.738442 -7.509954 -3.972161 1.256569 0.927722 -0.013321 0.000000 0.000000 -0.000000 
-8.224582 199.629486 -12.769413 -1.660116 -7.877592 -3.800169 1.171887 0.713651 0.986796 2.332852 1.465870 1.883400 2.332850 1.465869 1.883399 -10.464404 0.982563 1.314220 4.699168 1.422734 -3.009832 0.000000 0.000000 0.000000 0.000000 0.000000 0.000000 0.000000 0.000000 0.000000 -2.374810 0.363169 -11.594844 19.423940 -24.424502 -62.333495 0.771486 -27.635878 0.357822 -34.845539 -4.141391 11.142444 -0.828934 6.717971 -10.614292 -0.014492 -0.290752 -10.283117 0.000003 0.000001 0.000009 -0.000001 -0.000001 0.000001 15.490493 9.187584 8.245419 4.408104 10.225226 5.694938 0.000001 0.000008 0.000009 0.000003 0.000000 -0.000001 -6.522584 12.145816 -13.027229 0.557319 1.123911 -11.582549 -0.000000 0.000002 -0.000007 0.000000 -0.000000 -0.000001 1.873053 6.382116 -19.468419 -0.108797 0.029239 -11.296321 0.000001 -0.000000 -0.000011 -0.000001 -0.000001 0.000001 7.114123 7.594802 -29.011228 -0.534883 -2.901006 -16.984020 -0.000002 0.000000 -0.000007 -0.000001 0.000000 0.000004 -1.681595 -0.056551 7.444367 17.135833 18.408306 64.776749 1.207189 35.298059 -0.697523 11.760491 4.144336 1.384306 -0.104750 -6.081085 13.743326 -0.103306 0.513140 11.265635 0.000004 0.000008 0.000012 -0.000001 0.000001 -0.000000 -7.847348 -16.159635 -4.026281 6.206746 -14.043279 -3.513819 0.000010 0.000001 -0.000007 -0.000004 -0.000000 -0.000000 -6.563684 -7.924247 13.577853 0.041787 -0.589627 5.646571 0.000001 -0.000001 0.000001 0.000001 -0.000001 -0.000001 -0.635731 -3.910368 20.471773 -0.385790 0.504596 9.988605 0.000002 0.000005 -0.000001 -0.000001 0.000001 0.000000 1.338665 -3.353987 22.651600 -1.349797 4.145959 12.849012 -0.000006 -0.000001 0.000003 0.000001 0.000002 0.000001 -18.400441 1.067631 9.165749 17.116889 0.056087 -0.590304 4.555317 17.709666 -3.766483 0.703032 3.287858 -1.977875 -0.000000 0.000001 -0.000000 -4.072652 -12.700283 5.822464 9.535987 0.044537 0.309046 -4.095772 -7.280289 -3.955633 1.249639 0.927739 -0.013245 0.000000 0.000002 -0.000000 
-8.140684 199.410614 -12.637753 -1.593693 -7.674996 -4.059178 1.164434 0.687090 1.068217 2.317364 1.416322 2.042941 2.317365 1.416323 2.042941 -10.786199 0.953921 1.265579 4.655788 1.400708 -3.060088 0.000000 -0.000000 0.000000 0.000000 -0.000000 0.000000 0.000000 -0.000000 0.000000 -2.398189 0.354347 -11.747071 19.667789 -24.355034 -62.287022 0.792055 -27.974930 0.371490 -34.883381 -4.109302 11.227326 -0.840413 6.647914 -10.549639 -0.014084 -0.280683 -10.071497 0.000000 -0.000001 0.000008 -0.000001 -0.000001 -0.000001 15.469600 9.169997 8.266528 4.421493 10.253133 5.685794 -0.000002 0.000010 0.000005 0.000000 0.000000 -0.000001 -6.528520 12.140302 -12.956985 0.556871 1.122506 -11.562540 -0.000001 0.000001 -0.000005 -0.000001 -0.000000 -0.000000 1.853428 6.331485 -19.325680 -0.105508 0.041744 -11.167995 0.000001 -0.000005 -0.000009 -0.000001 0.000002 0.000000 7.277807 7.837403 -29.057862 -0.554085 -2.945144 -17.239922 0.000000 -0.000001 -0.000007 -0.000001 -0.000001 0.000000 -1.703355 -0.081085 7.397159 17.394161 18.255496 64.605988 1.216172 35.597768 -0.707880 11.669289 3.992451 1.416461 -0.113147 -6.045695 13.734874 -0.102629 0.509691 11.212002 0.000004 0.000006 0.000012 -0.000001 0.000001 -0.000002 -7.853344 -16.148353 -4.054704 6.206834 -14.043454 -3.513775 0.000005 0.000002 -0.000010 -0.000003 0.000000 0.000001 -6.562279 -7.931794 13.592689 0.041828 -0.589791 5.649753 0.000001 -0.000002 -0.000001 0.000001 0.000001 -0.000000 -0.631952 -3.924104 20.511538 -0.385200 0.503350 9.966924 -0.000002 0.000005 0.000001 -0.000000 -0.000000 -0.000001 1.340899 -3.357361 22.643484 -1.339836 4.132708 12.690603 -0.000009 0.000000 0.000005 0.000000 0.000002 0.000003 -19.121004 0.716820 9.384847 18.450764 0.043391 -0.639876 3.778813 17.649052 -3.690573 0.824551 3.284965 -2.195963 -0.000000 -0.000001 0.000000 -4.424823 -13.216811 5.918801 10.388697 0.045887 0.340597 -4.564341 -7.027488 -3.930390 1.240466 0.927736 -0.013141 0.000000 0.000000 -0.000000 
